<?xml version="1.0" encoding="UTF-8" standalone="no"?>
<!DOCTYPE svg PUBLIC "-//W3C//DTD SVG 1.1//EN" "http://www.w3.org/Graphics/SVG/1.1/DTD/svg11.dtd">
<!-- Created with Vectornator (http://vectornator.io/) -->
<svg height="100%" stroke-miterlimit="10" style="fill-rule:nonzero;clip-rule:evenodd;stroke-linecap:round;stroke-linejoin:round;" version="1.1" viewBox="0 0 1024 1024" width="100%" xml:space="preserve" xmlns="http://www.w3.org/2000/svg" xmlns:vectornator="http://vectornator.io" xmlns:xlink="http://www.w3.org/1999/xlink">
<defs/>
<clipPath id="ArtboardFrame">
<rect height="1024" width="1024" x="0" y="0"/>
</clipPath>
<g clip-path="url(#ArtboardFrame)" id="Слой-1" vectornator:layerName="Слой 1">
<path d="M838.122 83.9645L185.878 83.9645C129.683 83.9645 83.9645 129.683 83.9645 185.878L83.9645 838.122C83.9645 894.317 129.683 940.035 185.878 940.035L838.122 940.035C894.317 940.035 940.035 894.317 940.035 838.122L940.035 185.878C940.035 129.683 894.317 83.9645 838.122 83.9645ZM710.792 471.235L532.383 471.235L573.148 308.174L450.852 471.235L313.208 471.235L213.374 344.495C244.58 316.001 278.884 292.357 315.328 273.89L340.174 333.835L377.841 318.243L352.526 257.135C396.818 239.606 443.718 229.884 491.638 227.601L491.638 308.174L532.403 308.174L532.403 227.601C580.323 229.863 627.223 239.606 671.515 257.115L646.199 318.202L683.866 333.795L708.693 273.849C745.137 292.316 779.42 315.98 810.626 344.475L710.792 471.235Z" fill="#007aff" fill-rule="nonzero" opacity="1" stroke="none"/>
<path d="M956.451-136.106L940.451-136.106C939.883-136.106 939.339-136.341 938.961-136.751C938.564-137.179 938.385-137.754 938.473-138.328L939.464-151.378C939.62-152.411 940.452-153.106 941.451-153.106L955.451-153.106C956.45-153.106 957.282-152.411 957.43-151.454L957.439-151.378L958.438-138.253C958.517-137.754 958.338-137.179 957.939-136.749C957.562-136.341 957.019-136.106 956.451-136.106ZM941.449-151.106L940.458-138.1L956.451-138.106L955.454-151.101L941.449-151.106Z" fill="#000000" fill-rule="nonzero" opacity="1" stroke="none"/>
<path d="M951.451-152.106C950.898-152.106 950.451-152.553 950.451-153.106C950.451-154.209 949.554-155.106 948.451-155.106C947.348-155.106 946.451-154.209 946.451-153.106C946.451-152.553 946.004-152.106 945.451-152.106C944.898-152.106 944.451-152.553 944.451-153.106C944.451-155.312 946.245-157.106 948.451-157.106C950.657-157.106 952.451-155.312 952.451-153.106C952.451-152.553 952.004-152.106 951.451-152.106ZM950.59-145.135C950.425-144.873 950.342-144.496 950.342-144C950.342-143.57 950.424-143.229 950.586-142.979C950.747-142.728 950.974-142.602 951.266-142.602C951.618-142.602 951.875-142.721 952.037-142.957L952.037-145.166C951.879-145.405 951.625-145.525 951.275-145.525C950.983-145.526 950.756-145.395 950.59-145.135Z" fill="#000000" fill-rule="nonzero" opacity="1" stroke="none"/>
<path d="M956.441-151.302C956.37-151.763 955.949-152.106 955.451-152.106L941.451-152.106C940.953-152.106 940.532-151.763 940.461-151.302L939.461-138.177C939.42-137.908 939.505-137.635 939.695-137.43C939.885-137.224 940.161-137.106 940.451-137.106L956.451-137.106C956.741-137.106 957.016-137.224 957.206-137.429C957.396-137.634 957.481-137.907 957.44-138.176L956.441-151.302ZM946.37-141.437L945.224-143.394L944.762-142.932L944.762-141.437L943.127-141.437L943.127-148.9L944.763-148.9L944.763-144.938L944.928-145.157L946.161-146.691L948.123-146.691L946.283-144.53L948.244-141.437L946.37-141.437ZM953.683-141.636C953.683-141.173 953.576-140.771 953.359-140.429C953.144-140.088 952.834-139.825 952.425-139.643C952.017-139.459 951.544-139.369 951.007-139.369C950.622-139.369 950.249-139.441 949.888-139.588C949.527-139.734 949.251-139.923 949.06-140.155L949.745-141.117C950.049-140.758 950.451-140.578 950.949-140.578C951.674-140.578 952.037-140.95 952.037-141.694L952.037-141.86C951.723-141.513 951.326-141.34 950.848-141.34C950.207-141.34 949.689-141.584 949.293-142.075C948.898-142.565 948.701-143.221 948.701-144.044L948.701-144.103C948.701-144.633 948.789-145.103 948.963-145.511C949.139-145.918 949.389-146.234 949.716-146.455C950.043-146.676 950.424-146.788 950.858-146.788C951.405-146.788 951.833-146.603 952.139-146.234L952.198-146.691L953.684-146.691L953.684-141.636L953.683-141.636Z" fill="#000000" fill-rule="nonzero" opacity="1" stroke="none"/>
<path d="M327.09-334.116L321.781-339.423L337.469-355.115L342.778-349.808L327.09-334.116Z" fill="none" opacity="1" stroke="#000000" stroke-linecap="butt" stroke-linejoin="miter" stroke-width="2"/>
<path d="M328.154-345.744L330.245-343.653" fill="none" opacity="1" stroke="#000000" stroke-linecap="butt" stroke-linejoin="miter" stroke-width="2"/>
<path d="M327.09-334.116L321.781-339.423L337.469-355.115L342.778-349.808L327.09-334.116Z" fill="none" opacity="1" stroke="#000000" stroke-linecap="butt" stroke-linejoin="miter" stroke-width="2"/>
<path d="M328.154-345.744L330.245-343.653M325.154-342.744L328.326-339.572M325.154-342.744L328.326-339.572M331.154-348.744L334.326-345.572M331.154-348.744L334.326-345.572M334.154-351.744L336.245-349.653M334.154-351.744L336.245-349.653" fill="none" opacity="1" stroke="#000000" stroke-linecap="butt" stroke-linejoin="miter" stroke-width="2"/>
<path d="M749.067-173.399L734.925-187.541C733.791-188.674 731.815-188.674 730.682-187.541L688.963-145.822C687.793-144.652 687.793-142.749 688.963-141.579L703.105-127.437C703.672-126.871 704.425-126.558 705.227-126.558C706.029-126.558 706.782-126.87 707.348-127.437L749.067-169.156C750.237-170.326 750.237-172.229 749.067-173.399ZM747.653-170.57L746.922-169.839C746.888-169.887 746.868-169.942 746.825-169.985L744.704-172.106C744.313-172.497 743.681-172.497 743.29-172.106C742.899-171.715 742.899-171.083 743.29-170.692L745.411-168.571C745.454-168.528 745.509-168.507 745.557-168.474L743.386-166.303C743.352-166.351 743.332-166.406 743.289-166.449L738.339-171.399C737.948-171.79 737.316-171.79 736.925-171.399C736.534-171.008 736.534-170.376 736.925-169.985L741.875-165.035C741.918-164.992 741.973-164.972 742.021-164.938L739.851-162.768C739.817-162.816 739.797-162.871 739.754-162.914L737.632-165.035C737.241-165.426 736.609-165.426 736.218-165.035C735.827-164.644 735.827-164.012 736.218-163.621L738.34-161.5C738.383-161.457 738.438-161.437 738.486-161.403L736.315-159.232C736.281-159.28 736.261-159.335 736.218-159.378L734.097-161.5C733.707-161.891 733.074-161.891 732.683-161.5C732.292-161.109 732.292-160.477 732.683-160.086L734.804-157.964C734.847-157.921 734.901-157.901 734.95-157.867L732.78-155.697C732.746-155.745 732.726-155.8 732.683-155.843L727.733-160.793C727.342-161.184 726.71-161.184 726.319-160.793C725.928-160.402 725.928-159.77 726.319-159.379L731.269-154.429C731.312-154.386 731.367-154.366 731.415-154.332L729.245-152.162C729.211-152.21 729.191-152.265 729.148-152.308L727.026-154.429C726.635-154.82 726.003-154.82 725.612-154.429C725.221-154.038 725.221-153.406 725.612-153.015L727.734-150.894C727.777-150.851 727.832-150.831 727.88-150.797L725.709-148.626C725.675-148.674 725.655-148.729 725.612-148.772L723.49-150.893C723.099-151.284 722.467-151.284 722.076-150.893C721.685-150.502 721.685-149.87 722.076-149.479L724.198-147.358C724.241-147.315 724.295-147.295 724.344-147.261L722.174-145.091C722.14-145.139 722.12-145.194 722.077-145.237L717.127-150.186C716.736-150.577 716.104-150.577 715.713-150.186C715.322-149.795 715.322-149.163 715.713-148.772L720.663-143.823C720.706-143.78 720.761-143.76 720.809-143.726L718.638-141.555C718.604-141.603 718.584-141.657 718.541-141.7L716.42-143.822C716.03-144.213 715.397-144.213 715.006-143.822C714.615-143.431 714.615-142.799 715.006-142.408L717.127-140.286C717.17-140.243 717.224-140.223 717.272-140.189L715.102-138.019C715.068-138.067 715.048-138.121 715.005-138.164L712.883-140.285C712.492-140.676 711.86-140.676 711.469-140.285C711.078-139.894 711.078-139.262 711.469-138.871L713.591-136.75C713.634-136.707 713.688-136.687 713.736-136.653L711.566-134.483C711.532-134.531 711.512-134.586 711.469-134.629L706.519-139.578C706.128-139.969 705.496-139.969 705.105-139.578C704.714-139.187 704.714-138.555 705.105-138.164L710.055-133.215C710.098-133.172 710.152-133.152 710.201-133.118L708.03-130.947C707.997-130.995 707.976-131.049 707.934-131.092L705.813-133.213C705.422-133.604 704.79-133.604 704.399-133.213C704.008-132.822 704.008-132.19 704.399-131.799L706.52-129.678C706.563-129.635 706.617-129.615 706.665-129.582L705.933-128.85C705.556-128.471 704.897-128.471 704.519-128.85L690.377-142.993C689.987-143.384 689.987-144.017 690.377-144.408L732.097-186.127L732.097-186.127C732.285-186.316 732.536-186.42 732.804-186.42C733.072-186.42 733.322-186.316 733.511-186.127L747.653-171.985C748.043-171.594 748.043-170.961 747.653-170.57Z" fill="#000000" fill-rule="nonzero" opacity="1" stroke="none"/>
<path d="M730.394-181.61C729.225-180.44 729.224-178.538 730.394-177.368L730.394-177.368C730.96-176.801 731.714-176.489 732.515-176.489C733.316-176.489 734.07-176.801 734.636-177.368C735.806-178.538 735.806-180.44 734.636-181.61C733.503-182.743 731.527-182.743 730.394-181.61ZM733.222-178.782C732.845-178.403 732.186-178.403 731.809-178.782L731.809-178.782C731.419-179.172 731.419-179.806 731.809-180.196C731.997-180.385 732.248-180.489 732.515-180.489C732.782-180.489 733.033-180.385 733.222-180.196C733.612-179.806 733.612-179.172 733.222-178.782Z" fill="#000000" fill-rule="nonzero" opacity="1" stroke="none"/>
<path d="M592.753-398.293L598.882-392.166L580.772-374.051L574.644-380.178L592.753-398.293Z" fill="none" opacity="1" stroke="#000000" stroke-linecap="round" stroke-linejoin="round" stroke-width="1.6"/>
<path d="M590.178-394.78L591.803-393.155M588.057-392.658L591.077-389.637M585.936-390.537L587.561-388.912M583.813-388.416L585.438-386.791M581.692-386.295L584.713-383.274M579.571-384.174L581.196-382.549M577.45-382.053L579.075-380.428" fill="none" opacity="1" stroke="#000000" stroke-linecap="round" stroke-linejoin="round" stroke-width="1.6"/>
<path d="M592.753-398.293L598.882-392.166L580.772-374.051L574.644-380.178L592.753-398.293Z" fill="none" opacity="1" stroke="#000000" stroke-linecap="round" stroke-linejoin="round" stroke-width="1.6"/>
<path d="M590.178-394.78L591.803-393.155M588.057-392.658L591.077-389.637M585.936-390.537L587.561-388.912M583.813-388.416L585.438-386.791M581.692-386.295L584.713-383.274M579.571-384.174L581.196-382.549M577.45-382.053L579.075-380.428" fill="none" opacity="1" stroke="#000000" stroke-linecap="round" stroke-linejoin="round" stroke-width="1.6"/>
</g>
</svg>
