<?xml version="1.0" encoding="UTF-8" standalone="no"?>
<!DOCTYPE svg PUBLIC "-//W3C//DTD SVG 1.1//EN" "http://www.w3.org/Graphics/SVG/1.1/DTD/svg11.dtd">
<!-- Created with Vectornator (http://vectornator.io/) -->
<svg height="100%" stroke-miterlimit="10" style="fill-rule:nonzero;clip-rule:evenodd;stroke-linecap:round;stroke-linejoin:round;" version="1.1" viewBox="0 0 1024 1024" width="100%" xml:space="preserve" xmlns="http://www.w3.org/2000/svg" xmlns:vectornator="http://vectornator.io" xmlns:xlink="http://www.w3.org/1999/xlink">
<defs/>
<clipPath id="ArtboardFrame">
<rect height="1024" width="1024" x="0" y="0"/>
</clipPath>
<g clip-path="url(#ArtboardFrame)" id="Слой-1" vectornator:layerName="Слой 1">
<path d="M956.451-136.106L940.451-136.106C939.883-136.106 939.339-136.341 938.961-136.751C938.564-137.179 938.385-137.754 938.473-138.328L939.464-151.378C939.62-152.411 940.452-153.106 941.451-153.106L955.451-153.106C956.45-153.106 957.282-152.411 957.43-151.454L957.439-151.378L958.438-138.253C958.517-137.754 958.338-137.179 957.939-136.749C957.562-136.341 957.019-136.106 956.451-136.106ZM941.449-151.106L940.458-138.1L956.451-138.106L955.454-151.101L941.449-151.106Z" fill="#000000" fill-rule="nonzero" opacity="1" stroke="none"/>
<path d="M951.451-152.106C950.898-152.106 950.451-152.553 950.451-153.106C950.451-154.209 949.554-155.106 948.451-155.106C947.348-155.106 946.451-154.209 946.451-153.106C946.451-152.553 946.004-152.106 945.451-152.106C944.898-152.106 944.451-152.553 944.451-153.106C944.451-155.312 946.245-157.106 948.451-157.106C950.657-157.106 952.451-155.312 952.451-153.106C952.451-152.553 952.004-152.106 951.451-152.106ZM950.59-145.135C950.425-144.873 950.342-144.496 950.342-144C950.342-143.57 950.424-143.229 950.586-142.979C950.747-142.728 950.974-142.602 951.266-142.602C951.618-142.602 951.875-142.721 952.037-142.957L952.037-145.166C951.879-145.405 951.625-145.525 951.275-145.525C950.983-145.526 950.756-145.395 950.59-145.135Z" fill="#000000" fill-rule="nonzero" opacity="1" stroke="none"/>
<path d="M956.441-151.302C956.37-151.763 955.949-152.106 955.451-152.106L941.451-152.106C940.953-152.106 940.532-151.763 940.461-151.302L939.461-138.177C939.42-137.908 939.505-137.635 939.695-137.43C939.885-137.224 940.161-137.106 940.451-137.106L956.451-137.106C956.741-137.106 957.016-137.224 957.206-137.429C957.396-137.634 957.481-137.907 957.44-138.176L956.441-151.302ZM946.37-141.437L945.224-143.394L944.762-142.932L944.762-141.437L943.127-141.437L943.127-148.9L944.763-148.9L944.763-144.938L944.928-145.157L946.161-146.691L948.123-146.691L946.283-144.53L948.244-141.437L946.37-141.437ZM953.683-141.636C953.683-141.173 953.576-140.771 953.359-140.429C953.144-140.088 952.834-139.825 952.425-139.643C952.017-139.459 951.544-139.369 951.007-139.369C950.622-139.369 950.249-139.441 949.888-139.588C949.527-139.734 949.251-139.923 949.06-140.155L949.745-141.117C950.049-140.758 950.451-140.578 950.949-140.578C951.674-140.578 952.037-140.95 952.037-141.694L952.037-141.86C951.723-141.513 951.326-141.34 950.848-141.34C950.207-141.34 949.689-141.584 949.293-142.075C948.898-142.565 948.701-143.221 948.701-144.044L948.701-144.103C948.701-144.633 948.789-145.103 948.963-145.511C949.139-145.918 949.389-146.234 949.716-146.455C950.043-146.676 950.424-146.788 950.858-146.788C951.405-146.788 951.833-146.603 952.139-146.234L952.198-146.691L953.684-146.691L953.684-141.636L953.683-141.636Z" fill="#000000" fill-rule="nonzero" opacity="1" stroke="none"/>
<path d="M327.09-334.116L321.781-339.423L337.469-355.115L342.778-349.808L327.09-334.116Z" fill="none" opacity="1" stroke="#000000" stroke-linecap="butt" stroke-linejoin="miter" stroke-width="2"/>
<path d="M328.154-345.744L330.245-343.653" fill="none" opacity="1" stroke="#000000" stroke-linecap="butt" stroke-linejoin="miter" stroke-width="2"/>
<path d="M327.09-334.116L321.781-339.423L337.469-355.115L342.778-349.808L327.09-334.116Z" fill="none" opacity="1" stroke="#000000" stroke-linecap="butt" stroke-linejoin="miter" stroke-width="2"/>
<path d="M328.154-345.744L330.245-343.653M325.154-342.744L328.326-339.572M325.154-342.744L328.326-339.572M331.154-348.744L334.326-345.572M331.154-348.744L334.326-345.572M334.154-351.744L336.245-349.653M334.154-351.744L336.245-349.653" fill="none" opacity="1" stroke="#000000" stroke-linecap="butt" stroke-linejoin="miter" stroke-width="2"/>
<path d="M596.042 85.6414L334.67 85.6414C313.721 85.6506 295.46 103.911 295.46 124.851L295.46 895.9C295.46 917.524 313.046 935.11 334.67 935.11L596.042 935.11C606.512 935.1 616.363 931.034 623.774 923.623C631.185 916.212 635.261 906.37 635.251 895.9L635.251 124.851C635.251 103.227 617.666 85.6414 596.042 85.6414ZM609.118 124.851L609.118 138.361C608.36 138.232 607.667 137.908 606.872 137.908L567.672 137.908C560.446 137.908 554.605 143.749 554.605 150.975C554.605 158.202 560.446 164.042 567.672 164.042L606.872 164.042C607.667 164.042 608.369 163.728 609.118 163.589L609.118 203.713C608.36 203.584 607.667 203.261 606.872 203.261L515.387 203.261C508.16 203.261 502.32 209.101 502.32 216.327C502.32 223.554 508.16 229.394 515.387 229.394L606.872 229.394C607.667 229.394 608.36 229.071 609.118 228.941L609.118 269.047C608.36 268.918 607.667 268.594 606.872 268.594L567.663 268.604C560.436 268.604 554.596 274.444 554.596 281.67C554.596 288.897 560.436 294.737 567.663 294.737L606.872 294.728C607.667 294.728 608.36 294.404 609.118 294.275L609.118 334.399C608.36 334.27 607.667 333.947 606.872 333.947L567.663 333.937C560.446 333.928 554.596 339.778 554.596 347.004C554.596 354.231 560.436 360.071 567.663 360.071L606.872 360.08C607.667 360.08 608.351 359.766 609.118 359.627L609.118 399.733C608.36 399.604 607.667 399.28 606.872 399.28L515.387 399.28C508.16 399.28 502.32 405.121 502.32 412.347C502.32 419.574 508.16 425.414 515.387 425.414L606.872 425.414C607.667 425.414 608.36 425.09 609.118 424.961L609.118 465.067C608.36 464.938 607.667 464.614 606.872 464.614L567.663 464.623C560.436 464.623 554.596 470.464 554.596 477.69C554.596 484.917 560.436 490.757 567.663 490.757L606.872 490.748C607.667 490.748 608.36 490.424 609.118 490.295L609.118 530.419C608.36 530.29 607.667 529.966 606.872 529.966L567.663 529.976C560.436 529.976 554.596 535.816 554.596 543.042C554.596 550.269 560.436 556.109 567.663 556.109L606.872 556.1C607.667 556.1 608.351 555.786 609.118 555.647L609.118 595.753C608.36 595.624 607.667 595.3 606.872 595.3L515.396 595.309C508.169 595.309 502.329 601.15 502.329 608.376C502.329 615.603 508.169 621.443 515.396 621.443L606.872 621.434C607.667 621.434 608.36 621.11 609.118 620.981L609.118 661.105C608.36 660.976 607.676 660.662 606.882 660.662L567.672 660.652C560.455 660.643 554.605 666.493 554.605 673.719C554.605 680.946 560.446 686.786 567.672 686.786L606.882 686.795C607.676 686.795 608.36 686.481 609.118 686.351L609.118 726.457C608.36 726.328 607.676 726.014 606.882 726.014L567.672 726.023C560.446 726.023 554.605 731.863 554.605 739.09C554.605 746.316 560.446 752.157 567.672 752.157L606.882 752.147C607.676 752.147 608.36 751.833 609.118 751.704L609.118 791.81C608.36 791.68 607.667 791.357 606.872 791.357L515.396 791.366C508.169 791.366 502.329 797.206 502.329 804.433C502.329 811.659 508.169 817.5 515.396 817.5L606.872 817.49C607.667 817.49 608.351 817.176 609.118 817.037L609.118 857.162C608.369 857.023 607.676 856.718 606.891 856.709L567.691 856.709C560.464 856.709 554.624 862.549 554.624 869.776C554.624 877.002 560.464 882.843 567.691 882.843L606.891 882.843C607.686 882.843 608.369 882.528 609.118 882.39L609.118 895.919C609.136 902.905 603.047 908.995 596.051 908.985L334.67 908.976C327.453 908.967 321.603 903.117 321.594 895.9L321.603 124.842L321.603 124.842C321.594 121.358 322.952 118.077 325.429 115.601C327.906 113.124 331.177 111.775 334.67 111.775L596.042 111.775C603.259 111.784 609.109 117.634 609.118 124.851Z" fill="#007aff" fill-rule="nonzero" opacity="1" stroke="none"/>
<path d="M355.018 187.285C355.027 208.9 372.594 226.486 394.218 226.486L394.218 226.486C404.688 226.495 414.539 222.41 421.941 215.008C429.343 207.606 433.428 197.755 433.418 187.285C433.418 165.661 415.842 148.085 394.218 148.085C373.278 148.085 355.018 166.345 355.018 187.285ZM407.285 187.285C407.303 194.272 401.213 200.361 394.227 200.343L394.227 200.343C387.019 200.343 381.161 194.484 381.161 187.276C381.151 183.792 382.51 180.512 384.977 178.044C387.444 175.577 390.725 174.219 394.218 174.219C401.426 174.219 407.285 180.077 407.285 187.285Z" fill="#007aff" fill-rule="nonzero" opacity="1" stroke="none"/>
<path d="M592.753-398.293L598.882-392.166L580.772-374.051L574.644-380.178L592.753-398.293Z" fill="none" opacity="1" stroke="#000000" stroke-linecap="round" stroke-linejoin="round" stroke-width="1.6"/>
<path d="M590.178-394.78L591.803-393.155M588.057-392.658L591.077-389.637M585.936-390.537L587.561-388.912M583.813-388.416L585.438-386.791M581.692-386.295L584.713-383.274M579.571-384.174L581.196-382.549M577.45-382.053L579.075-380.428" fill="none" opacity="1" stroke="#000000" stroke-linecap="round" stroke-linejoin="round" stroke-width="1.6"/>
<path d="M592.753-398.293L598.882-392.166L580.772-374.051L574.644-380.178L592.753-398.293Z" fill="none" opacity="1" stroke="#000000" stroke-linecap="round" stroke-linejoin="round" stroke-width="1.6"/>
<path d="M590.178-394.78L591.803-393.155M588.057-392.658L591.077-389.637M585.936-390.537L587.561-388.912M583.813-388.416L585.438-386.791M581.692-386.295L584.713-383.274M579.571-384.174L581.196-382.549M577.45-382.053L579.075-380.428" fill="none" opacity="1" stroke="#000000" stroke-linecap="round" stroke-linejoin="round" stroke-width="1.6"/>
</g>
</svg>
